<?xml version="1.0" encoding="UTF-8"?>
<svg version="1.1" xmlns="http://www.w3.org/2000/svg" width="6000" height="2000">
<path d="M0 0 C1.08797882 -0.00311188 2.17595764 -0.00622375 3.29690552 -0.00942993 C4.48315521 -0.00744598 5.66940491 -0.00546204 6.89160156 -0.00341797 C8.15285858 -0.00473724 9.4141156 -0.00605652 10.71359253 -0.00741577 C14.17936099 -0.01013693 17.64508519 -0.00560408 21.11084747 0.00082397 C23.281643 0.00439357 25.45243188 0.0060145 27.62322998 0.00708008 C62.9299686 0.02848269 98.23085017 0.55352923 133.53222656 1.12939453 C137.53587738 37.33348823 141.44485527 73.54710302 145.27441406 109.77001953 C145.37770932 110.7469747 145.48100458 111.72392986 145.58743 112.73048973 C146.97977988 125.90045402 148.36995201 139.07064786 149.75952148 152.24090576 C151.36223998 167.43108448 152.96631797 182.62111967 154.57137132 197.81105185 C155.09958914 202.81024302 155.62757089 207.80945891 156.15502167 212.80873108 C158.34169665 233.53370465 160.53921673 254.25736987 162.78188205 274.97636843 C163.09727379 277.89101366 163.41218667 280.80571023 163.72693825 283.72042465 C163.93254546 285.62406233 164.13815949 287.52769927 164.34378052 289.43133545 C164.49435612 290.82548286 164.49435612 290.82548286 164.64797366 292.24779487 C165.13452826 296.74943677 165.62273865 301.25088707 166.11480331 305.75193024 C171.36411914 353.77461245 171.36411914 353.77461245 172.15722656 377.37939453 C172.19517334 378.40025146 172.23312012 379.4211084 172.2722168 380.47290039 C172.53689289 388.03087314 172.61915679 395.56646489 172.53222656 403.12939453 C176.49222656 403.12939453 180.45222656 403.12939453 184.53222656 403.12939453 C184.2881179 401.3919397 184.2881179 401.3919397 184.03907776 399.61938477 C182.40545027 386.47941155 183.6185743 372.76264452 184.28613281 359.56689453 C184.3291559 358.70747253 184.37217899 357.84805054 184.41650581 356.96258545 C185.37630502 338.22606779 187.17359319 319.61457368 189.16797256 300.96410751 C189.69588845 296.0048028 190.21151636 291.04421817 190.72827148 286.08374023 C191.44751219 279.18564808 192.16803369 272.28769747 192.89308167 265.39021301 C195.06651556 244.69801167 197.18940318 224.00077824 199.30375928 203.30246508 C200.67404182 189.88912668 202.04907793 176.47627509 203.42416859 163.06342888 C204.48643248 152.70080691 205.54708938 142.33802567 206.60397339 131.97485352 C207.51898519 123.00369358 208.43856184 114.03301335 209.36318111 105.06283838 C209.84163658 100.4198787 210.31824687 95.77675145 210.7894249 91.1330471 C212.65126634 72.79704921 214.64594379 54.49387923 217.11303711 36.22827148 C217.21265232 35.48746979 217.31226753 34.7466681 217.41490138 33.98341787 C218.90230628 22.99160645 220.70784928 12.07565823 222.53222656 1.12939453 C279.95222656 1.12939453 337.37222656 1.12939453 396.53222656 1.12939453 C397.70720443 7.00428387 398.80698161 12.5780522 399.54064941 18.47283936 C399.62514076 19.14349371 399.7096321 19.81414807 399.79668379 20.50512528 C400.07467685 22.71897647 400.34742061 24.93343991 400.62011719 27.14794922 C400.82062478 28.7537464 401.02144979 30.35950398 401.2225647 31.96522522 C401.7678982 36.32727894 402.30852847 40.68990363 402.84813881 45.05266857 C403.42571401 49.71722238 404.00704852 54.38130806 404.58776855 59.04547119 C405.57224055 66.95739438 406.5536145 74.86969737 407.53320312 82.78222656 C408.51488232 90.71135654 409.49974935 98.64008081 410.48828125 106.56835938 C415.69817515 148.3568085 420.82934945 190.1531426 425.6976223 231.98293018 C426.00932599 234.66064321 426.3216254 237.33828625 426.63398743 240.01592255 C430.75421592 275.37067554 434.40154829 310.76830297 437.93719482 346.18572998 C438.73289376 354.1545549 439.53435956 362.12274913 440.34362793 370.09020996 C440.70300693 373.65122313 441.05396773 377.2129896 441.40429688 380.77490234 C442.89858981 395.66475012 445.03889783 410.37604471 447.53222656 425.12939453 C450.00507476 400.6253871 452.0975777 376.09409008 454.14263773 351.55126238 C454.6029078 346.03350399 455.06563971 340.51595206 455.52816772 334.99838257 C456.31370107 325.62491966 457.09810946 316.25136328 457.88180542 306.87774658 C459.90671605 282.66156295 461.94209442 258.44625713 463.97753906 234.23095703 C464.0773872 233.04292276 464.17723533 231.85488849 464.28010917 230.63085318 C467.54079242 191.83456173 470.81127729 153.03921592 474.16779709 114.25108337 C474.46655849 110.79108448 474.76349222 107.3309335 475.05984497 103.87072754 C482.18916131 20.70212422 482.18916131 20.70212422 496.53222656 4.12939453 C497.19544922 3.29021484 497.19544922 3.29021484 497.87207031 2.43408203 C501.84426719 -0.68759739 507.9336019 0.0030556 512.7512207 0 C513.4511445 -0.00172683 514.15106831 -0.00345366 514.87220192 -0.00523281 C517.18728636 -0.00956519 519.50229748 -0.00664076 521.81738281 -0.00341797 C523.45929487 -0.00447579 525.10120675 -0.00586096 526.74311829 -0.0075531 C531.12396357 -0.01034876 535.50477228 -0.00598804 539.88561249 0.0006218 C542.58994085 0.00438787 545.29426577 0.00645693 547.99859619 0.00808716 C569.30416848 0.02328233 590.606067 0.09330664 611.90722656 0.56689453 C612.83979279 0.58645203 613.77235901 0.60600952 614.73318481 0.62615967 C617.27840063 0.68178686 619.82324728 0.7451655 622.36816406 0.81298828 C623.09650955 0.82971085 623.82485504 0.84643341 624.57527161 0.86366272 C629.41519413 1.0123621 629.41519413 1.0123621 630.53222656 2.12939453 C630.64683783 4.41757482 630.68709577 6.7094769 630.70019531 9.00048828 C630.7044754 9.72633118 630.70875549 10.45217407 630.71316528 11.20001221 C630.72341471 13.65569844 630.72314355 16.11119015 630.71972656 18.56689453 C630.71878998 19.43246979 630.71785339 20.29804504 630.71688843 21.18984985 C630.49547099 117.36028009 620.80826076 214.16937113 579.00941467 622.05712128 C578.609249 625.47161473 578.2094743 628.88615383 577.80982858 632.30070817 C575.68839608 650.42572787 573.55746786 668.54960626 571.41523361 686.67218018 C570.979624 690.35814612 570.54461867 694.04418303 570.10964966 697.73022461 C568.40173025 712.19022206 566.6707285 726.64723194 564.90248871 741.09998322 C564.44428625 744.84890471 563.98928839 748.59821313 563.53483963 752.3475914 C559.37373871 786.10785192 553.87126253 819.49346794 548.53222656 853.12939453 C486.82222656 853.12939453 425.11222656 853.12939453 361.53222656 853.12939453 C359.1557897 847.18830238 356.89267117 841.46283366 354.91113281 835.41845703 C354.68598999 834.73253479 354.46084717 834.04661255 354.22888184 833.33990479 C347.96501877 814.17854734 342.17565316 795.59807844 339.71044922 775.51928711 C339.62691484 774.84482092 339.54338046 774.17035472 339.45731473 773.47545016 C336.94979167 753.14407062 334.97920283 732.7524011 332.952003 712.3688314 C332.38288028 706.65317687 331.80971719 700.93792711 331.23721313 695.22261047 C330.27805745 685.64095448 329.3221259 676.05898104 328.36816406 666.47680664 C327.27288741 655.4756152 326.17228155 644.47496665 325.06887281 633.4745881 C323.99672577 622.78446771 322.92854433 612.09395441 321.8620491 601.40326881 C321.41284092 596.90110237 320.96227965 592.39907461 320.51054001 587.89716148 C316.2318294 545.23099308 313.29048024 503.03006798 313.53222656 460.12939453 C311.22222656 460.12939453 308.91222656 460.12939453 306.53222656 460.12939453 C306.5427002 460.97606689 306.55317383 461.82273926 306.56396484 462.69506836 C306.59941086 466.04112768 306.62374655 469.38697134 306.64208984 472.7331543 C306.65175178 474.14301821 306.665051 475.55286507 306.68310547 476.96264648 C307.11620772 511.82737751 302.94283862 546.55624839 299.25828892 581.16284921 C298.51872213 588.11242291 297.7890443 595.06302633 297.05970941 602.01368002 C295.75304736 614.46398777 294.43912369 626.91351737 293.12036133 639.36254883 C291.85491457 651.30844677 290.59274531 663.25468304 289.33520508 675.20141602 C289.21926045 676.30288129 289.21926045 676.30288129 289.10097351 677.42659839 C288.71233697 681.11883577 288.32377365 684.81108086 287.93525445 688.50333059 C287.16935702 695.78189942 286.40311341 703.06043181 285.63667297 710.33894348 C285.56203649 711.04774404 285.48740001 711.75654459 285.41050182 712.48682395 C284.33051143 722.74235747 283.24809701 732.99763254 282.16398621 743.25273132 C281.96035458 745.17984141 281.96035458 745.17984141 281.75260919 747.14588302 C281.09201675 753.39682975 280.43051645 759.64767775 279.76717663 765.89833355 C278.51639397 777.69960974 277.28661789 789.50249668 276.09805298 801.31021118 C275.75971779 804.6473084 275.42095411 807.98436188 275.08209574 811.32140601 C274.77088614 814.40926516 274.46710692 817.49779464 274.16362286 820.58642101 C273.97576552 822.44069249 273.78756336 824.29492908 273.59895325 826.14912415 C273.520013 826.97768232 273.44107275 827.8062405 273.35974038 828.65990651 C272.90505416 833.0454065 272.27923967 837.03222665 270.53222656 841.12939453 C268.27822876 842.41796875 268.27822876 842.41796875 265.42529297 843.18408203 C263.81927719 843.63485107 263.81927719 843.63485107 262.18081665 844.09472656 C261.01029755 844.39491699 259.83977844 844.69510742 258.63378906 845.00439453 C256.80658829 845.50302002 256.80658829 845.50302002 254.94247437 846.01171875 C252.34373569 846.71596806 249.74461765 847.41026933 247.13916016 848.08837891 C243.25569219 849.09920952 239.38414492 850.15153405 235.51269531 851.20751953 C192.71750619 862.76258372 151.29195588 867.43889414 107.15722656 868.75439453 C106.11965714 868.78536224 106.11965714 868.78536224 105.06112671 868.81695557 C100.55184926 868.94754965 96.04264672 869.04816282 91.53222656 869.12939453 C90.24791748 869.15420898 88.9636084 869.17902344 87.64038086 869.20458984 C86.40457275 869.21844727 85.16876465 869.23230469 83.89550781 869.24658203 C82.25255737 869.26760986 82.25255737 869.26760986 80.57641602 869.2890625 C73.87330073 868.93748359 68.52043843 866.5551064 63.78222656 861.81689453 C51.22904733 845.77836201 49.90004782 821.3774629 47.63549805 801.96289062 C47.37853219 799.81026819 47.12142769 797.6576623 46.86419582 795.50507164 C44.0346946 771.60109259 41.63860595 747.65261272 39.26734805 723.69968367 C38.65996538 717.57636178 38.04715878 711.4535843 37.43452433 705.330786 C36.21638263 693.15520177 35.00217318 680.9792291 33.79049369 668.8030002 C31.65084985 647.30208719 29.50009692 625.80229193 27.34755036 604.30266732 C26.45567774 595.39432087 25.5640674 586.48594816 24.67245483 577.57757568 C24.57234239 576.57734089 24.47222994 575.57710609 24.36908378 574.54656115 C21.9594957 550.47154561 19.55327297 526.39619391 17.14746094 502.32080078 C16.9325129 500.16982123 16.71756448 498.01884171 16.50261569 495.86786222 C14.77787851 478.60842263 13.0533033 461.34896685 11.32875824 444.08950806 C10.79744109 438.77202278 10.26611797 433.4545381 9.73479028 428.13705388 C9.52277676 426.01523217 9.31076518 423.89341027 9.09875552 421.77158818 C7.93245548 410.0991374 6.76596408 398.42670579 5.5989933 386.75432205 C5.28014173 383.56498876 4.96129284 380.3756552 4.6424468 377.18632135 C4.42991558 375.06043119 4.21738037 372.93454143 4.00484116 370.80865207 C2.73561631 358.11295928 1.46773171 345.41713396 0.20185546 332.72110684 C-0.95669526 321.10156704 -2.11628144 309.48213085 -3.27685547 297.86279297 C-3.43375923 296.29177138 -3.43375923 296.29177138 -3.59383276 294.68901199 C-6.72841626 263.30906049 -9.90902549 231.93401355 -13.12095504 200.56188803 C-13.95562559 192.40751205 -14.78782184 184.25288661 -15.61832714 176.0980854 C-15.7921219 174.391709 -15.7921219 174.391709 -15.96942767 172.65086035 C-16.43341432 168.09472237 -16.89731709 163.53857589 -17.3608981 158.98239662 C-18.70386441 145.78388968 -20.05507468 132.58629809 -21.4215252 119.390201 C-22.26860571 111.20299727 -23.10547072 103.01478853 -23.93467186 94.82575485 C-24.41105668 90.12473011 -24.89192098 85.42428685 -25.38573337 80.72505808 C-27.1169448 64.22463585 -28.77738222 47.79125522 -28.88380432 31.18685913 C-28.89520885 30.06782971 -28.90661339 28.94880029 -28.91836351 27.79586089 C-28.84401197 19.78049587 -27.70181937 12.67219804 -22.12011719 6.44580078 C-16.00309965 1.5724322 -7.62462085 0.00644509 0 0 Z " fill="#E82A33" transform="translate(1655.4677734375,463.87060546875)"/>
<path d="M0 0 C1.30210922 0.00081573 1.30210922 0.00081573 2.63052368 0.00164795 C30.77363893 0.0821977 57.83065369 4.7533101 83.625 16.375 C84.56424316 16.79555664 85.50348633 17.21611328 86.47119141 17.64941406 C126.77144234 35.87376996 148.22253822 62.86852927 168.625 101.375 C169.09244629 102.25623535 169.55989258 103.1374707 170.04150391 104.04541016 C198.41558173 158.38413461 196.75360471 223.58017271 197.54272842 283.26598072 C197.60597745 288.03057995 197.67451488 292.79508211 197.74560547 297.55957031 C198.97330224 380.29012395 199.50295694 463.04103907 199.74711341 596.64178509 C199.74874055 601.47300539 199.75167943 606.30422227 199.75581557 611.13544106 C199.76296388 619.49458172 199.76431328 627.85369875 199.75938225 636.21284103 C199.75789695 638.96361169 199.75847522 641.7143678 199.76114082 644.46513748 C199.77740891 668.17796457 199.56313691 691.94953219 197.43261719 715.58251953 C197.24573656 717.67268443 197.07554476 719.7638128 196.90625 721.85546875 C193.75112395 759.09732982 182.65107781 790.02012596 156.625 817.375 C155.51371854 818.66055059 154.40905854 819.9518682 153.3125 821.25 C149.55698128 825.5853494 145.46548498 829.57504856 141.37695312 833.59277344 C138.48985604 836.44506625 135.81195971 839.29488807 133.3125 842.5 C100.57661118 880.66525575 32.5084942 897.11040157 -14.97119141 900.85961914 C-35.41021923 902.22693778 -56.05103082 902.03611441 -76.375 899.375 C-77.98737549 899.16496338 -77.98737549 899.16496338 -79.63232422 898.95068359 C-128.72302484 892.15155448 -173.89384887 857.74990517 -204.9375 820.125 C-206.10337625 818.5563665 -207.24870512 816.97229093 -208.375 815.375 C-209.1071875 814.405625 -209.839375 813.43625 -210.59375 812.4375 C-237.03860929 775.93077511 -234.84333673 718.00639704 -235.88256836 674.75195312 C-235.90311338 673.91715833 -235.92365841 673.08236353 -235.94482601 672.22227192 C-236.52730224 648.27670129 -236.79635045 624.3258232 -237.08218122 600.37525368 C-237.12975947 596.39741534 -237.1779796 592.41958507 -237.22642326 588.4417572 C-237.3629345 577.22162204 -237.49856433 566.00147714 -237.63058567 554.78128815 C-237.63895338 554.07020435 -237.6473211 553.35912056 -237.65594238 552.62648878 C-237.67287413 551.18737221 -237.68980553 549.74825564 -237.70673657 548.30913907 C-237.71513216 547.59562416 -237.72352774 546.88210924 -237.73217773 546.14697266 C-237.74058408 545.43248197 -237.74899042 544.71799129 -237.7576515 543.98184937 C-237.88311 533.33207656 -238.01389166 522.68237958 -238.14819336 512.03271484 C-238.89972045 452.35035034 -239.51937138 392.67017179 -239.58445239 332.98259544 C-239.58975582 329.15717366 -239.59860171 325.33177549 -239.60843086 321.50636292 C-239.76069733 257.05740142 -239.76069733 257.05740142 -235.5625 225.9375 C-235.47818726 225.29419739 -235.39387451 224.65089478 -235.30700684 223.98809814 C-227.00796023 160.82780444 -207.8900694 93.6952949 -155.375 53.375 C-154.36308594 52.59640625 -153.35117188 51.8178125 -152.30859375 51.015625 C-129.47412721 33.8897751 -103.00062711 22.21744157 -76.375 12.375 C-75.5799707 12.07577637 -74.78494141 11.77655273 -73.96582031 11.46826172 C-50.37877087 2.66750241 -25.04399543 -0.05957913 0 0 Z M-65.921875 174.6640625 C-68.52475635 177.54049507 -70.22619296 180.24113062 -72 183.6875 C-72.56976562 184.75613281 -73.13953125 185.82476563 -73.7265625 186.92578125 C-79.57513096 200.99282761 -78.78824072 216.64840405 -78.703125 231.5546875 C-78.70004 233.99724203 -78.69818484 236.43979837 -78.69744873 238.88235474 C-78.69167055 245.38183993 -78.66720908 251.88113184 -78.63928223 258.3805542 C-78.62118678 263.28310606 -78.61626178 268.18561533 -78.61242676 273.0881958 C-78.54244872 356.15912535 -77.57718424 439.23473186 -76.04806778 569.22168572 C-75.91296875 580.39226067 -75.78196848 591.5628799 -75.65260106 602.73352256 C-75.51638623 614.49191432 -75.37740724 626.25027055 -75.23551702 638.00859523 C-75.15727261 644.49868552 -75.08005805 650.98878329 -75.00575256 657.47891998 C-74.93680253 663.49201055 -74.8642464 669.50504739 -74.78901863 675.51806259 C-74.76235702 677.69553753 -74.73691102 679.87302781 -74.71287346 682.05053329 C-74.64818943 687.87421804 -74.5490526 693.69558598 -74.41824913 699.51814365 C-74.37278779 702.52112949 -74.39021569 705.52030987 -74.41017151 708.52352142 C-74.39202089 710.5133133 -74.37257115 712.50309385 -74.35168457 714.49285889 C-74.37251586 715.40467084 -74.39334716 716.3164828 -74.4148097 717.25592542 C-74.32220541 722.21109102 -74.32220541 722.21109102 -71.62567139 726.19126368 C-68.04327333 728.75896789 -64.32159082 730.69310128 -60.15234375 732.140625 C-56.02357515 733.68081725 -52.15914491 735.44085734 -48.25390625 737.484375 C-35.7444536 744.00044357 -21.22999767 751.51846077 -6.62109375 750.109375 C8.76689713 745.07817103 21.11336963 731.02261412 28.73632812 717.27514648 C30.39917612 713.71966682 31.2883344 709.99544379 32.1875 706.1875 C32.39729492 705.32036377 32.60708984 704.45322754 32.82324219 703.55981445 C34.25735257 697.43169946 35.42216539 691.28294926 36.375 685.0625 C36.54817749 683.93775269 36.54817749 683.93775269 36.72485352 682.7902832 C38.62516504 669.34403036 38.80098776 655.77621226 38.93426514 642.22288513 C38.95446268 640.46244958 38.97494447 638.70201727 38.99568605 636.94158804 C39.05006653 632.20708368 39.09854217 627.47253723 39.14525086 622.73795159 C39.17510314 619.74128067 39.20638776 616.74462766 39.23803854 613.74797523 C39.66895071 572.69691824 39.80477605 531.64733638 39.82518864 490.59427571 C39.82803266 484.91472685 39.832278 479.23517947 39.83669281 473.55563164 C39.84876024 457.66747301 39.85911219 441.77931547 39.8625679 425.89115238 C39.86278747 424.89652616 39.86300703 423.90189993 39.86323325 422.87713351 C39.86345153 421.88115961 39.86366981 420.88518571 39.8638947 419.85903078 C39.86433807 417.84311362 39.86478463 415.82719646 39.86523438 413.8112793 C39.8654558 412.81147132 39.86567723 411.81166334 39.86590537 410.78155815 C39.86990046 394.38481823 39.88755078 377.98812141 39.9105939 361.59139831 C39.9343417 344.55125865 39.9467697 327.51114086 39.94793582 310.4709844 C39.9488456 300.98301765 39.95442895 291.49510885 39.97275543 282.00715828 C39.98819658 273.99055147 39.99324957 265.974021 39.98501733 257.95740212 C39.98113804 253.88560427 39.98190916 249.81396024 39.99607468 245.74218178 C40.0630724 225.30205023 39.79373689 205.64700883 32.9375 186.125 C32.42183472 184.61957642 32.42183472 184.61957642 31.89575195 183.08374023 C28.97638902 174.82933267 25.64445747 166.59812173 20.625 159.375 C-4.70429309 150.9319023 -45.98519821 156.74551557 -65.921875 174.6640625 Z " fill="#E72A33" transform="translate(1374.375,462.625)"/>
<path d="M0 0 C1.34546402 -0.00149551 1.34546402 -0.00149551 2.71810913 -0.00302124 C26.25321438 -0.00007013 49.78625656 0.69736993 73.3125 1.1875 C73.3125 282.6775 73.3125 564.1675 73.3125 854.1875 C20.70419043 867.33957739 20.70419043 867.33957739 11.58178711 867.31689453 C10.71275757 867.31864685 9.84372803 867.32039917 8.94836426 867.32220459 C6.07883701 867.32660064 3.20937161 867.32369119 0.33984375 867.3203125 C-1.66450512 867.32098661 -3.66885392 867.32195753 -5.67320251 867.32321167 C-9.87711362 867.32468596 -14.08100348 867.32254428 -18.28491211 867.31787109 C-23.64536024 867.31219973 -29.00575801 867.315438 -34.36620426 867.32144356 C-38.5091743 867.32507846 -42.65213266 867.32389675 -46.79510307 867.32131577 C-48.76964766 867.32065324 -50.74419334 867.32145109 -52.71873665 867.32379532 C-62.75295563 867.33308706 -72.70111216 867.3185699 -82.6875 866.1875 C-83.57558036 863.52325892 -83.90887551 861.5613608 -84.12060547 858.79785156 C-84.19104568 857.89765289 -84.2614859 856.99745422 -84.33406067 856.06997681 C-84.40686752 855.08266571 -84.47967438 854.09535461 -84.5546875 853.078125 C-84.63389938 852.03465912 -84.71311127 850.99119324 -84.79472351 849.91610718 C-85.05664091 846.42365172 -85.31061951 842.9306932 -85.5625 839.4375 C-85.65087128 838.22004089 -85.73924255 837.00258179 -85.83029175 835.74822998 C-87.84848001 807.70266228 -89.20836667 779.6306264 -90.41371632 751.53973103 C-90.62982927 746.50661016 -90.85099016 741.47372786 -91.07421875 736.44091797 C-92.02201504 715.02596549 -92.89292259 693.60868795 -93.6875 672.1875 C-93.71483719 671.45503555 -93.74217438 670.72257111 -93.77033997 669.96791077 C-95.78059962 616.03875043 -95.92892071 562.14968211 -95.6875 508.1875 C-96.39381058 508.27662155 -97.10012115 508.3657431 -97.82783508 508.45756531 C-104.71605382 509.32632763 -111.60453435 510.1929824 -118.49326801 511.05765057 C-122.02892799 511.50150887 -125.56450549 511.94599723 -129.09985352 512.39233398 C-153.61252358 515.48461992 -178.14382655 518.33358448 -202.6875 521.1875 C-202.6875 645.2675 -202.6875 769.3475 -202.6875 897.1875 C-257.69617646 906.83814499 -290.27159051 909.1875 -346.6875 909.1875 C-346.6875 626.7075 -346.6875 344.2275 -346.6875 53.1875 C-282.60745718 41.3208254 -282.60745718 41.3208254 -251.12597656 35.59716797 C-246.24206144 34.7092026 -241.35860626 33.81873097 -236.47523117 32.92780113 C-232.63923598 32.22834155 -228.80295659 31.53045113 -224.96659088 30.83302689 C-223.15951486 30.50425407 -221.35254176 30.17491504 -219.54567719 29.84498215 C-217.0759966 29.39418446 -214.60592792 28.94557869 -212.13574219 28.49755859 C-211.40490417 28.36365723 -210.67406616 28.22975586 -209.92108154 28.09179688 C-204.91588587 27.1875 -204.91588587 27.1875 -202.6875 27.1875 C-202.3575 141.0375 -202.0275 254.8875 -201.6875 372.1875 C-171.3275 364.2675 -140.9675 356.3475 -109.6875 348.1875 C-106.27862017 347.33528004 -103.88315369 347.07966245 -100.4375 347.125 C-99.54546875 347.13402344 -98.6534375 347.14304687 -97.734375 347.15234375 C-96.72117187 347.16974609 -96.72117187 347.16974609 -95.6875 347.1875 C-95.69749275 345.5956916 -95.69749275 345.5956916 -95.70768738 343.97172546 C-96.02435464 291.78381451 -95.88183371 239.73244116 -93.33182526 187.60159492 C-92.71519822 174.97873991 -92.1584044 162.35349437 -91.60826302 149.72758484 C-89.32477442 97.32727744 -89.32477442 97.32727744 -88.11268902 71.40250015 C-87.83411804 65.42761422 -87.5682585 59.45238183 -87.3150053 53.47637081 C-87.16259219 49.9336618 -86.9997886 46.39148642 -86.83412361 42.84937477 C-86.76117472 41.24282284 -86.69259482 39.6360651 -86.62890434 38.02911949 C-85.82172766 17.79383032 -85.82172766 17.79383032 -79.4375 11.875 C-73.45353161 7.13056792 -67.9211654 4.58237486 -60.4375 3.5625 C-59.19842896 3.38593872 -59.19842896 3.38593872 -57.93432617 3.20581055 C-55.18825406 2.83564719 -52.44020208 2.50447782 -49.6875 2.1875 C-48.7814502 2.08163574 -47.87540039 1.97577148 -46.94189453 1.86669922 C-31.32062663 0.15570806 -15.69567758 0.00435762 0 0 Z " fill="#E62B33" transform="translate(976.6875,519.8125)"/>
<path d="M0 0 C6.07548014 -0.07932415 12.03012639 0.0480362 18.0703125 0.70703125 C18.83705795 0.78802567 19.60380341 0.86902008 20.39378357 0.95246887 C22.97191776 1.23028718 25.54850191 1.51991029 28.125 1.8125 C29.48563065 1.96498199 29.48563065 1.96498199 30.87374878 2.12054443 C60.16832212 5.44619412 89.29289486 10.21566647 118.40966797 14.81225586 C123.00430278 15.53654537 127.60034387 16.24129089 132.20361328 16.90844727 C133.09426987 17.0400827 133.98492645 17.17171814 134.90257263 17.30734253 C136.46120987 17.53649429 138.0209222 17.7585335 139.58192444 17.97097778 C145.39328063 18.83686054 149.07571126 20.6911704 153 25 C153.89332031 25.82951172 153.89332031 25.82951172 154.8046875 26.67578125 C166.62585737 38.52231843 169.63096834 58.47220438 174.14196396 73.97682571 C175.17723765 77.5280029 176.22250354 81.07623716 177.2668457 84.62475586 C178.99902355 90.51413375 180.7259773 96.4050194 182.44970703 102.296875 C184.84555648 110.48375519 187.26124075 118.66467832 189.68359375 126.84375 C197.76435936 154.13781872 205.77842052 181.45055167 213.69995117 208.79125977 C217.3982798 221.54855536 221.1561785 234.28575294 225 247 C229.75048798 237.01038936 234.04628796 226.85817046 238.28695679 216.64474487 C240.27317696 211.86324421 242.26936317 207.08590898 244.265625 202.30859375 C244.86820381 200.86629143 244.86820381 200.86629143 245.48295593 199.39485168 C251.55063277 184.88494867 257.74338546 170.42933022 264 156 C264.31088562 155.28241516 264.62177124 154.56483032 264.94207764 153.82550049 C276.55809563 127.02829953 288.55725024 100.53345604 302.87768555 75.04516602 C303.97075862 73.05328585 304.99790032 71.03893269 306 69 C318.64425296 69.62146137 331.13784053 71.12747807 343.6875 72.75 C344.72303009 72.8831662 345.75856018 73.0163324 346.82546997 73.15353394 C393.81239661 79.22506431 393.81239661 79.22506431 412 86 C413.04542969 86.37769531 414.09085938 86.75539063 415.16796875 87.14453125 C424.57163759 90.78191415 436.31361133 95.53293194 441.1484375 104.92578125 C454.99434715 138.65136853 437.01423044 175.69088311 424 207 C421.62959607 212.6441891 419.21536838 218.26886209 416.78442383 223.88720703 C388.73306956 288.61914114 388.73306956 288.61914114 365 355 C364.6508252 356.0739502 364.30165039 357.14790039 363.94189453 358.25439453 C352.97078318 392.11516495 345.29545056 426.53848809 342 462 C341.89196045 463.13816162 341.89196045 463.13816162 341.78173828 464.29931641 C341.31520794 469.53014859 341.11303544 474.75042367 341 480 C340.95915283 481.88307861 340.95915283 481.88307861 340.91748047 483.80419922 C339.41907594 561.60127161 364.27023683 634.63974502 389.33016968 707.34606934 C408.31390403 762.51957479 426.32557567 818.2728949 442.94659424 874.20361328 C443.45959526 875.9267807 443.98208122 877.64711666 444.50537109 879.3671875 C449.88485825 897.91111072 450.39821591 915.98584682 450.1875 935.1875 C450.17241106 937.60611137 450.15873018 940.02473194 450.14648438 942.44335938 C450.11384707 948.29577817 450.06398838 954.14784426 450 960 C403.08354817 960.74854427 338.28845786 959.9448574 301.484375 926.50390625 C294.97543026 919.94379056 290.25884998 913.50678578 286.0625 905.25 C285.58876953 904.35667969 285.11503906 903.46335937 284.62695312 902.54296875 C276.31164077 886.44381541 270.46799471 869.19151584 264.875 852 C264.53650024 850.96561798 264.19800049 849.93123596 263.84924316 848.86550903 C252.64960933 814.53502571 242.5485399 779.84969345 232.234375 745.24609375 C227.67376818 729.94630156 223.11149143 714.64701411 218.50910187 699.35972786 C217.93373339 697.44703444 217.35947479 695.53400678 216.78636932 693.62063408 C216.00158331 691.0014485 215.21279181 688.38350404 214.42285156 685.76586914 C214.19053078 684.98757563 213.95820999 684.20928211 213.71884918 683.40740395 C212.87858141 679.92508331 212.87858141 679.92508331 211 677 C203.15553176 689.24876466 198.15095317 702.45455476 193 716 C192.71296204 716.75343689 192.42592407 717.50687378 192.13018799 718.28314209 C187.90763984 729.36926774 183.72085211 740.46876517 179.54582214 751.57286072 C176.72057512 759.0869729 173.88948865 766.59886217 171.0546875 774.109375 C170.43193436 775.75944801 170.43193436 775.75944801 169.79660034 777.44285583 C167.68852417 783.0280122 165.57969832 788.61288478 163.47021484 794.19750977 C159.76992096 803.99576937 156.07286092 813.7951082 152.40368652 823.60507202 C150.88139272 827.67393818 149.35517755 831.74132818 147.82861328 835.80859375 C147.12512302 837.68626627 146.42353448 839.56465273 145.72412109 841.44384766 C141.23551797 853.5024193 136.36189953 865.30251826 131 877 C122.65930656 877.20015123 114.53389167 876.64399273 106.25 875.6875 C105.22252151 875.56903717 105.22252151 875.56903717 104.17428589 875.44818115 C88.07183671 873.54826028 72.10181377 870.76613308 56.13298035 867.98526382 C54.09731656 867.63105809 52.06131851 867.27882761 50.02526855 866.92684937 C36.00637604 864.49685135 22.02859306 861.90609492 8.12109375 858.8984375 C7.02845718 858.66758453 5.93582062 858.43673157 4.81007385 858.19888306 C-1.51450825 856.79168653 -7.20300831 854.9052334 -13 852 C-12.4339533 843.37326898 -10.93550569 835.17161695 -9 826.75 C-8.76892044 825.7407547 -8.76892044 825.7407547 -8.53317261 824.71112061 C8.81522522 749.33243669 37.25480492 674.57300464 67.0546875 603.2578125 C81.92129416 567.64582354 93.01701784 532.42502114 98 494 C98.17789063 492.67331299 98.17789063 492.67331299 98.359375 491.31982422 C105.38636971 436.87107209 96.24346944 380.77843561 83 328 C82.70053467 326.80283356 82.70053467 326.80283356 82.39501953 325.58148193 C67.32528548 265.69517768 45.47110729 207.26930367 25.71435547 148.82275391 C13.65379851 113.13630541 13.65379851 113.13630541 8.6796875 97.8828125 C8.16597092 96.33024246 8.16597092 96.33024246 7.64187622 94.74630737 C0.33501167 72.08450246 -0.28645695 50.03001673 -0.125 26.4375 C-0.1149464 23.86523787 -0.10582478 21.29297193 -0.09765625 18.72070312 C-0.07584009 12.48038404 -0.04255248 6.24021037 0 0 Z " fill="#E72A33" transform="translate(3490,591)"/>
<path d="M0 0 C1.63861217 1.59025968 3.26291183 3.19535826 4.875 4.8125 C5.84932284 5.73154684 6.82598904 6.64811419 7.8046875 7.5625 C29.33918404 27.96813049 41.04430795 55.20142458 49.13647461 83.29600525 C49.59279738 84.85090623 50.06449574 86.40149935 50.56079102 87.94410706 C56.83004793 107.6014891 55.59240113 128.34193511 55.45147705 148.72039795 C55.43281005 152.68310104 55.44765494 156.64539471 55.4625864 160.60809135 C55.47324072 164.47590498 55.46414509 168.34348502 55.44920158 172.21127701 C55.44409057 174.03458077 55.44441333 175.85790964 55.45074654 177.68120956 C55.4749592 188.82369263 55.38520866 200.41748826 50.875 210.8125 C42.54386204 217.19350926 30.65372789 218.22821623 20.609375 220.2109375 C19.01011409 220.53058142 17.41093357 220.85062778 15.81182861 221.17105103 C12.45713323 221.84195432 9.10168386 222.50890195 5.74560547 223.17285156 C1.53702383 224.00563626 -2.66984645 224.84670133 -6.87622833 225.69051743 C-22.71668251 228.86585679 -38.5649285 231.97071532 -54.484375 234.7265625 C-55.6428595 234.9273642 -56.80134399 235.12816589 -57.99493408 235.33505249 C-61.03522124 235.85027989 -64.07771014 236.34065073 -67.125 236.8125 C-67.83338013 236.92793152 -68.54176025 237.04336304 -69.27160645 237.16229248 C-77.47703866 238.30291455 -85.86118527 237.89273121 -94.125 237.8125 C-95.6960315 226.60816603 -97.26115602 215.40302418 -98.81881714 204.19682312 C-99.54234278 198.99294917 -100.26787347 193.78937147 -100.99804688 188.58642578 C-101.70308264 183.56205864 -102.4027724 178.53697301 -103.09881592 173.51135254 C-103.36483876 171.59742888 -103.63276256 169.68376842 -103.90264893 167.77038574 C-104.28133411 165.08328038 -104.65315089 162.39530503 -105.0234375 159.70703125 C-105.13564636 158.92227921 -105.24785522 158.13752716 -105.36346436 157.32899475 C-106.02728122 152.44402165 -106.22356029 147.742961 -106.125 142.8125 C-107.45180786 143.16405151 -107.45180786 143.16405151 -108.80541992 143.52270508 C-120.92719379 146.65102836 -133.15428193 149.09733989 -145.4375 151.5 C-148.50927129 152.10327613 -151.58080031 152.70772759 -154.65190125 153.31440735 C-156.54569444 153.68828948 -158.43989525 154.06011443 -160.33454895 154.42961121 C-161.18361313 154.59681168 -162.03267731 154.76401215 -162.9074707 154.9362793 C-163.65196976 155.0818779 -164.39646881 155.2274765 -165.16352844 155.37748718 C-167.32187254 155.82072446 -167.32187254 155.82072446 -170.125 156.8125 C-170.96438814 161.7741229 -171.80044284 166.73629234 -172.63354492 171.69897461 C-172.91683084 173.38369545 -173.20099351 175.06826913 -173.48608398 176.75268555 C-173.8980349 179.18759685 -174.30672635 181.62303733 -174.71484375 184.05859375 C-174.84092514 184.79959824 -174.96700653 185.54060272 -175.09690857 186.30406189 C-180.20311569 216.93166661 -178.63101109 251.62139666 -160.125 277.8125 C-157.08189071 281.82880396 -153.79846226 285.62088959 -150.42724609 289.36328125 C-149.27561051 290.64489145 -148.14583852 291.9460747 -147.01953125 293.25 C-136.40009023 305.40997888 -124.85806966 316.88768269 -112.125 326.8125 C-110.90098015 327.81054172 -109.67983357 328.81211335 -108.4609375 329.81640625 C-101.69044709 335.39014331 -94.85273279 340.83249284 -87.8125 346.0625 C-81.42980992 350.80526251 -75.20604445 355.68483964 -69.125 360.8125 C-68.59197266 361.26061035 -68.05894531 361.7087207 -67.50976562 362.17041016 C-59.87677398 368.60013944 -52.44219522 375.20874338 -45.140625 382.01171875 C-42.49557586 384.47581717 -39.81852981 386.90135638 -37.125 389.3125 C11.311804 432.77345255 50.37146164 477.10965276 55.875 544.8125 C56.21974987 551.68461717 56.18157366 558.56641668 56.17578125 565.4453125 C56.17968552 567.41323941 56.18402362 569.38116551 56.18876648 571.34909058 C56.19617986 575.45882909 56.19597617 579.56848168 56.19067383 583.67822266 C56.18606631 587.82612012 56.19287623 591.97372277 56.21118164 596.12158203 C56.44717911 650.08442227 52.02353597 703.44414899 25.875 751.8125 C25.55563477 752.4111084 25.23626953 753.0097168 24.90722656 753.62646484 C17.68025608 767.08623881 8.78328523 779.20314634 -1.125 790.8125 C-1.84300781 791.66585937 -2.56101562 792.51921875 -3.30078125 793.3984375 C-8.70432171 799.63698332 -14.61229353 804.76342038 -21.125 809.8125 C-22.6409375 811.01712891 -22.6409375 811.01712891 -24.1875 812.24609375 C-32.19775152 818.57147732 -40.5174926 824.3320721 -49.125 829.8125 C-49.84478027 830.27382324 -50.56456055 830.73514648 -51.30615234 831.21044922 C-95.99912664 859.62344235 -145.71486062 873.84976999 -198.125 878.8125 C-198.85235352 878.88452637 -199.57970703 878.95655273 -200.32910156 879.03076172 C-204.92424506 879.46933617 -209.51262401 879.68806053 -214.125 879.8125 C-215.2186084 879.84504883 -216.3122168 879.87759766 -217.43896484 879.91113281 C-254.94615586 880.88355966 -276.04590991 871.27975323 -302.96459961 845.76269531 C-305.02501079 843.78635679 -307.07618182 841.80085203 -309.125 839.8125 C-309.89763184 839.06709961 -310.67026367 838.32169922 -311.46630859 837.55371094 C-313.8842472 835.21332978 -316.28802386 832.85929588 -318.6875 830.5 C-319.42532715 829.78368408 -320.1631543 829.06736816 -320.92333984 828.3293457 C-337.48641799 811.86627247 -345.4594407 791.56767503 -345.61005688 768.42974949 C-345.60356646 766.0114857 -345.57764142 763.59389743 -345.55078125 761.17578125 C-345.54616311 759.42133436 -345.54325392 757.66688227 -345.54191589 755.91242981 C-345.53316804 751.27060413 -345.4992851 746.62929883 -345.45956421 741.98764801 C-345.42995244 738.1457664 -345.4155922 734.30389037 -345.4014225 730.46192551 C-345.28773568 699.90818557 -344.88608559 669.35713197 -344.125 638.8125 C-341.11386133 637.22285703 -338.10192042 635.63473982 -335.08984375 634.046875 C-333.82400452 633.37857666 -333.82400452 633.37857666 -332.53259277 632.69677734 C-292.06688278 611.37329468 -247.61809966 606.38683535 -203.37109375 619.98046875 C-201.125 620.8125 -201.125 620.8125 -200.125 621.8125 C-199.91007081 624.37317401 -199.75750972 626.91239811 -199.64428711 629.47827148 C-199.6051268 630.28165451 -199.56596649 631.08503754 -199.52561951 631.9127655 C-199.39654122 634.58617537 -199.2743424 637.25985215 -199.15234375 639.93359375 C-199.06443845 641.79152542 -198.97618196 643.6494405 -198.8875885 645.50733948 C-198.70231042 649.41385987 -198.52023563 653.32051217 -198.34057617 657.22729492 C-198.11116125 662.21385923 -197.87559338 667.20010761 -197.63779354 672.18627834 C-197.45486293 676.03055506 -197.27442053 679.87494533 -197.09478951 683.71937752 C-197.00883637 685.55604753 -196.92232173 687.39269135 -196.83521843 689.22930717 C-196.41659404 698.0956365 -196.00211665 706.93346388 -196.125 715.8125 C-195.52746414 715.60618454 -194.92992828 715.39986908 -194.31428528 715.18730164 C-188.0378317 713.02164541 -181.75823043 710.8653078 -175.47680664 708.71411133 C-173.13974047 707.91241235 -170.80345945 707.10842045 -168.46801758 706.30200195 C-165.09144717 705.13654754 -161.71204422 703.97964559 -158.33203125 702.82421875 C-157.305439 702.46784836 -156.27884674 702.11147797 -155.22114563 701.74430847 C-143.20349883 697.65701969 -131.75761183 695.4505107 -119.125 694.8125 C-119.07166504 693.75675781 -119.01833008 692.70101562 -118.96337891 691.61328125 C-118.52613664 683.23262456 -118.00070403 674.86581298 -117.3359375 666.5 C-117.19783775 664.72656864 -117.0598176 662.95313109 -116.921875 661.1796875 C-116.71254379 658.49457449 -116.49978827 655.80995644 -116.27636719 653.12597656 C-115.00200117 637.71569145 -114.45839285 622.29835598 -117.6875 607.0625 C-117.94901855 605.82222046 -117.94901855 605.82222046 -118.21582031 604.55688477 C-123.32059777 581.86874821 -134.20648384 560.71176783 -144.125 539.8125 C-144.62217529 538.74620361 -145.11935059 537.67990723 -145.6315918 536.58129883 C-147.05466746 533.94289747 -148.41875842 532.14468825 -150.53125 530.04296875 C-151.18697998 529.38643311 -151.84270996 528.72989746 -152.51831055 528.0534668 C-153.56112183 527.03700073 -153.56112183 527.03700073 -154.625 526 C-155.34405518 525.29077393 -156.06311035 524.58154785 -156.80395508 523.85083008 C-161.49923383 519.26785597 -166.29231084 514.97961604 -171.453125 510.92578125 C-173.85750313 509.02407282 -176.1815707 507.05258971 -178.49584961 505.04296875 C-187.64864754 497.12395144 -197.39410498 489.99807934 -207.125 482.8125 C-208.75007799 481.60817814 -210.37507975 480.40375343 -212 479.19921875 C-219.67304182 473.52104209 -227.38043311 467.8926834 -235.125 462.3125 C-238.1259633 460.14716477 -241.12569155 457.98012668 -244.125 455.8125 C-244.90375488 455.25062988 -245.68250977 454.68875977 -246.48486328 454.10986328 C-258.04895161 445.74871845 -269.25817781 437.06455103 -280.125 427.8125 C-280.71845215 427.31331055 -281.3119043 426.81412109 -281.92333984 426.29980469 C-298.70246786 411.94535528 -315.73584407 395.83351199 -327.125 376.8125 C-327.86684454 375.63129496 -328.60902633 374.45030164 -329.3515625 373.26953125 C-336.34781099 361.8589067 -341.27327293 349.46845451 -344.9375 336.625 C-345.13239014 335.94985352 -345.32728027 335.27470703 -345.52807617 334.57910156 C-348.60769318 323.12927825 -349.42679404 311.4641121 -349.5390625 299.65625 C-349.55842865 298.3520813 -349.5777948 297.0479126 -349.5977478 295.70422363 C-349.64848253 292.26711799 -349.68832146 288.82997138 -349.72589111 285.3927002 C-349.76564938 281.96221612 -349.81722513 278.53191018 -349.8671875 275.1015625 C-349.97726211 267.33875538 -350.05918448 259.57581524 -350.125 251.8125 C-350.13427521 250.73361511 -350.14355042 249.65473022 -350.15310669 248.54315186 C-350.23849256 237.13828265 -350.10904146 225.81971852 -349.3125 214.4375 C-349.22266846 213.12587891 -349.13283691 211.81425781 -349.0402832 210.46289062 C-346.16261972 169.91927682 -337.35312997 130.84135189 -318.125 94.8125 C-317.20460938 93.06066406 -317.20460938 93.06066406 -316.265625 91.2734375 C-311.42342716 82.40941418 -305.65369557 74.49695455 -299.46142578 66.53955078 C-298.34041929 65.09088437 -297.24342376 63.62368135 -296.15234375 62.15234375 C-260.55365199 14.43494841 -192.33420644 -15.38343472 -135.125 -24.1875 C-134.38636719 -24.30464355 -133.64773438 -24.42178711 -132.88671875 -24.54248047 C-92.77794636 -30.62203088 -32.09828326 -28.1875747 0 0 Z " fill="#E72A33" transform="translate(486.125,647.1875)"/>
<path d="M0 0 C67.67522721 0 67.67522721 0 90.5625 0.6875 C92.00968671 0.7288068 93.45688146 0.7698328 94.90408325 0.81060791 C107.60393746 1.17004502 120.30205145 1.57905731 133 2 C134.21239853 2.04015984 135.42479706 2.08031967 136.67393494 2.12169647 C156.18375188 2.76953139 175.69255522 3.44427543 195.20083052 4.13690716 C200.33391992 4.31892292 205.46711889 4.49757386 210.60037231 4.67489624 C242.65230238 5.78488601 274.67526931 7.14706058 306.69140625 9.0390625 C307.75432235 9.10157361 307.75432235 9.10157361 308.8387115 9.16534758 C313.58499553 9.44481106 318.33079823 9.73140745 323.07641602 10.02197266 C324.78959991 10.12523298 324.78959991 10.12523298 326.53739357 10.23057938 C338.70810197 10.99279615 350.83791178 12.02703294 363 13 C363 60.52 363 108.04 363 157 C294.69 157 226.38 157 156 157 C156 223.66 156 290.32 156 359 C162.6 358.67 169.2 358.34 176 358 C179.6133369 357.90374745 183.2131202 357.82064974 186.82568359 357.79467773 C187.73936203 357.78477814 188.65304047 357.77487854 189.59440613 357.76467896 C192.52905978 357.73383571 195.46372871 357.70858389 198.3984375 357.68359375 C200.49191601 357.66292074 202.58539132 357.6419225 204.67886353 357.62062073 C209.03361123 357.57710208 213.38837193 357.53613041 217.74316406 357.49731445 C223.25803498 357.44814438 228.77285136 357.39458706 234.28766441 357.33933926 C239.63707451 357.28592638 244.98650455 357.2346572 250.3359375 357.18359375 C251.32108715 357.17403593 252.3062368 357.16447811 253.32123947 357.15463066 C263.87754566 357.0537314 274.43395251 356.97720426 284.99072266 356.94946289 C285.89561117 356.94491561 286.80049969 356.94036833 287.73280907 356.93568325 C297.18388398 356.92408818 306.18882911 357.11037183 314.03125 362.9921875 C327.46553269 376.69302342 325.41186021 399.09877582 325.29296875 416.6484375 C325.288549 418.83829519 325.28549396 421.02815607 325.28381348 423.21801758 C325.26818791 431.27039389 325.22630432 439.32270203 325.1875 447.375 C325.125625 465.40125 325.06375 483.4275 325 502 C269.23 502 213.46 502 156 502 C156 621.79 156 741.58 156 865 C104.52 865 53.04 865 0 865 C0 579.55 0 294.1 0 0 Z " fill="#E72A33" transform="translate(2367,465)"/>
<path d="M0 0 C0.99306656 0.07799835 1.98613312 0.1559967 3.0092926 0.23635864 C4.10523239 0.33899017 5.20117218 0.4416217 6.33032227 0.54736328 C8.08064003 0.69176346 8.08064003 0.69176346 9.86631775 0.83908081 C13.11148786 1.10984519 16.3550365 1.39494728 19.59844208 1.68595886 C23.04340341 1.99158397 26.48988663 2.2789175 29.9362793 2.56787109 C35.20093009 3.01107305 40.46495767 3.46086494 45.72845078 3.91761017 C57.40559758 4.93081283 69.08628935 5.89872503 80.76782227 6.85986328 C84.59083674 7.17493115 88.41382941 7.49026304 92.23681641 7.80566406 C93.17770331 7.88328413 94.11859022 7.9609042 95.08798885 8.04087639 C104.27629295 8.79920997 113.46435293 9.56040905 122.65179634 10.32910538 C124.30767729 10.46747765 125.96359449 10.60541697 127.6195507 10.74288559 C129.90524072 10.93271153 132.19079348 11.1241153 134.47631836 11.31591797 C136.39968521 11.47649689 136.39968521 11.47649689 138.36190796 11.64031982 C142.65006197 12.03304941 146.92946529 12.51714653 151.20922852 12.99267578 C151.20922852 248.28267578 151.20922852 483.57267578 151.20922852 725.99267578 C158.79922852 726.32267578 166.38922852 726.65267578 174.20922852 726.99267578 C209.48638733 728.70694735 244.25961277 733.00244355 279.20922852 737.99267578 C279.88825981 738.08948135 280.56729111 738.18628693 281.26689911 738.286026 C291.48111079 739.74297004 301.69030818 741.23217522 311.89672852 742.74267578 C313.1508252 742.92695129 314.40492188 743.11122681 315.69702148 743.30108643 C355.37512664 749.15857391 355.37512664 749.15857391 358.20922852 751.99267578 C358.30571099 753.84028847 358.33110169 755.69163388 358.32948303 757.54176331 C358.33154503 759.34866135 358.33154503 759.34866135 358.33364868 761.19206238 C358.33010908 762.53909326 358.32647426 763.8861239 358.32275391 765.2331543 C358.32247204 766.64215086 358.32262976 768.05114757 358.32319641 769.46014404 C358.3234844 773.29675208 358.31758746 777.13332913 358.31062245 780.96992993 C358.30438914 784.97514519 358.30378514 788.98036109 358.30259705 792.98558044 C358.29948366 800.57519582 358.29127018 808.16479686 358.28124756 815.75440592 C358.27008664 824.39271502 358.26457602 833.03102479 358.25955212 841.6693393 C358.24908757 859.44379293 358.231488 877.21823321 358.20922852 894.99267578 C346.86504089 895.07301383 335.5692525 894.8649284 324.23657227 894.36376953 C322.59653037 894.29339097 320.95648508 894.22309134 319.31643677 894.15286255 C313.92618194 893.91963083 308.53644652 893.67545349 303.14672852 893.43017578 C302.21027874 893.38792248 301.27382896 893.34566917 300.30900192 893.30213547 C249.34635261 891.00041317 198.44280755 887.74525373 147.53918457 884.4072876 C142.48483123 884.0758903 137.43032937 883.74684247 132.37575054 883.4189043 C122.13615989 882.7545416 111.89732992 882.07953832 101.65916061 881.39362717 C99.45036181 881.24625424 97.24145193 881.10067331 95.03250122 880.95559692 C14.9999329 875.68254002 14.9999329 875.68254002 -6.79077148 854.99267578 C-7.30764236 854.5887517 -7.82451323 854.18482761 -8.35704685 853.7686634 C-10.39965328 851.23843992 -10.16573112 849.44223803 -10.16566831 846.21408093 C-10.17292264 844.99881606 -10.18017697 843.78355119 -10.18765113 842.53146011 C-10.18053107 841.17311802 -10.17313774 839.81477735 -10.16550159 838.45643806 C-10.16832559 837.01507041 -10.17246509 835.57370483 -10.17780682 834.13234431 C-10.18872421 830.14421803 -10.18079357 826.15631165 -10.16997279 822.16819319 C-10.16150103 817.83977866 -10.17034393 813.51139514 -10.17703694 809.18298233 C-10.18635884 801.58780026 -10.18445129 793.99268424 -10.17530441 786.3975029 C-10.1617401 775.10339642 -10.16525823 763.80934096 -10.17226302 752.51523084 C-10.1842107 732.34732095 -10.17908885 712.17944224 -10.16698474 692.01153407 C-10.15646341 674.3613945 -10.15190734 656.71126557 -10.15328026 639.06112289 C-10.15336429 637.89197805 -10.15344832 636.72283322 -10.1535349 635.51825974 C-10.15388712 630.77272635 -10.15427113 626.02719297 -10.15470047 621.28165959 C-10.15866892 576.72999564 -10.14593192 532.17835052 -10.12517391 487.62669196 C-10.10680576 448.0180503 -10.10099072 408.4094267 -10.10644531 368.80078125 C-10.10679175 366.25794379 -10.10713784 363.71510634 -10.1074836 361.17226888 C-10.1076546 359.91515796 -10.10782559 358.65804703 -10.10800177 357.36284184 C-10.10885527 351.03512843 -10.10967906 344.70741503 -10.11047077 338.37970161 C-10.11070639 336.50729033 -10.11070639 336.50729033 -10.11094677 334.59705255 C-10.11493425 301.5330079 -10.10946467 268.468965 -10.10095948 235.40492141 C-10.10005241 231.84834304 -10.09914676 228.29176466 -10.09824425 224.73518629 C-10.09764314 222.37569134 -10.09703452 220.01619639 -10.09641834 217.65670144 C-10.09219179 201.18626786 -10.09162088 184.71583769 -10.09352383 168.24540374 C-10.09596366 147.02170781 -10.09192063 125.79803019 -10.07631383 104.57433929 C-10.06824524 93.34202092 -10.06567553 82.10973305 -10.07095619 70.87741285 C-10.07392282 63.38398465 -10.0696647 55.89058352 -10.05940761 48.3971618 C-10.05375592 44.12139646 -10.05131423 39.84569351 -10.05757419 35.56992759 C-10.06319459 31.6843421 -10.05970398 27.79887814 -10.04877542 23.91330493 C-10.04645771 22.51236635 -10.04752633 21.11141728 -10.05229796 19.7104849 C-10.05827186 17.81431959 -10.05079896 15.91812605 -10.04262048 14.02196896 C-10.04226122 12.97023891 -10.04190196 11.91850886 -10.04153182 10.83490819 C-9.71035761 7.08122813 -8.68756591 4.21919879 -6.4651947 1.17971802 C-4.1558973 -0.45740307 -2.80155269 -0.24251389 0 0 Z " fill="#E62C35" transform="translate(2816.790771484375,491.00732421875)"/>
<path d="M0 0 C138.15228723 11.90967993 138.15228723 11.90967993 154 24 C154.68449219 24.46277344 155.36898437 24.92554688 156.07421875 25.40234375 C158.66791817 27.3015841 160.6903579 28.7856356 161.50729465 31.98952457 C161.56416694 32.71329421 161.62103923 33.43706385 161.67963493 34.1827659 C161.74392731 34.98025375 161.80821969 35.7777416 161.87446032 36.59939574 C162.06055792 40.15800515 162.13756081 43.70001155 162.12584114 47.26324558 C162.12802117 48.44038033 162.12802117 48.44038033 162.13024524 49.64129557 C162.13388091 52.25962727 162.13042877 54.87789985 162.12698364 57.49623108 C162.12813824 59.40143172 162.12972858 61.30663215 162.13171518 63.21183211 C162.1358952 68.4493939 162.13382924 73.68693745 162.13073099 78.9244993 C162.1284533 84.5991317 162.1319211 90.27376106 162.13463593 95.94839287 C162.13905295 107.14377635 162.13801627 118.33915321 162.13516669 129.53453694 C162.13294981 138.75698388 162.13290256 147.97942862 162.13431931 157.20187569 C162.13442008 157.86251799 162.13452085 158.52316028 162.13462468 159.20382205 C162.13503623 161.89074152 162.135455 164.57766099 162.13588527 167.26458045 C162.14027041 194.98880111 162.13687541 222.71301752 162.13056505 250.43723756 C162.12989552 253.39219208 162.12923084 256.34714661 162.12857056 259.30210114 C162.12840631 260.03469908 162.12824206 260.76729703 162.12807284 261.52209492 C162.12464736 276.99461395 162.12346587 292.46713288 162.12257662 307.93965223 C162.11839109 379.7697739 162.10296706 451.59990621 161.5 741.125 C161.49703844 741.94730522 161.49407687 742.76961043 161.49102557 743.61683398 C161.34510159 784.07796489 161.18385811 824.53902242 161 865 C159.23797682 865.80859517 157.47512112 866.61537636 155.71191406 867.42138672 C154.73031311 867.87085663 153.74871216 868.32032654 152.73736572 868.78341675 C112.18021562 886.80846512 67.56751772 875.89528766 27.3125 863.4375 C26.20456589 863.0996196 26.20456589 863.0996196 25.07424927 862.75491333 C22.9368687 862.09894533 20.80579045 861.42557318 18.67578125 860.74609375 C17.45802002 860.36122803 16.24025879 859.9763623 14.9855957 859.57983398 C9.78167496 857.51707312 4.91431589 854.68053594 0 852 C0 570.84 0 289.68 0 0 Z " fill="#E7333B" transform="translate(3252,547)"/>
</svg>
